<?xml version="1.0" encoding="utf-8"?>
<!-- Generator: Adobe Illustrator 16.0.3, SVG Export Plug-In . SVG Version: 6.00 Build 0)  -->
<!DOCTYPE svg PUBLIC "-//W3C//DTD SVG 1.1//EN" "http://www.w3.org/Graphics/SVG/1.1/DTD/svg11.dtd">
<svg version="1.1" id="Ebene_1" xmlns="http://www.w3.org/2000/svg" xmlns:xlink="http://www.w3.org/1999/xlink" x="0px" y="0px"
	 width="100px" height="50px" viewBox="0 0 100 50" enable-background="new 0 0 100 50" xml:space="preserve">
<rect x="-2.042" y="-2.167" fill="#008B00" width="108.351" height="54.036"/>
<path fill-rule="evenodd" clip-rule="evenodd" fill="#060606" d="M52.426-10.978c-0.055,0.368-0.134,0.783-0.167,1.204
	c-0.014,0.151,0.033,0.349,0.126,0.467c0.33,0.421,0.702,0.809,1.036,1.229c0.156,0.197,0.25,0.446,0.396,0.653
	c0.071,0.099,0.2,0.215,0.305,0.215c0.073,0.001,0.191-0.164,0.219-0.273c0.138-0.478,0.216-0.974,0.378-1.441
	c0.28-0.803,0.578-1.601,0.919-2.378c0.406-0.929,0.364-1.925,0.525-2.892c0.154-0.911-0.139-1.832,0.169-2.746
	c0.132-0.391,0.013-0.868,0.011-1.304c-0.002-0.242,0.024-0.484,0.017-0.726c-0.025-0.774-0.05-1.546-0.099-2.318
	c-0.043-0.698-0.098-1.397-0.188-2.091c-0.103-0.779-0.25-1.553-0.373-2.332c-0.096-0.611-0.178-1.222-0.278-1.833
	c-0.089-0.539-0.185-1.078-0.296-1.615c-0.25-1.187-0.601-2.35-0.736-3.565c-0.084-0.724-0.37-1.427-0.563-2.14
	c-0.037-0.141-0.063-0.283-0.104-0.423c-0.128-0.441-0.257-0.881-0.389-1.321c-0.021-0.07-0.063-0.134-0.08-0.203
	c-0.207-0.824-0.377-1.659-0.623-2.47c-0.28-0.932-0.628-1.842-0.944-2.761c-0.008-0.023-0.021-0.043-0.033-0.066
	c-0.35-1.159-0.984-2.182-1.576-3.224c-0.662-1.173-1.571-2.144-2.689-2.894c-0.253-0.167-0.619-0.172-0.936-0.244
	c-0.378-0.087-0.597-0.358-0.55-0.699c0.05-0.37,0.375-0.632,0.756-0.573c0.213,0.033,0.447,0.08,0.622,0.196
	c1.302,0.861,2.464,1.875,3.249,3.25c0.276,0.484,0.488,1.004,0.732,1.505c0.067,0.128,0.13,0.274,0.234,0.368
	c0.307,0.283,0.442,0.641,0.578,1.029c0.273,0.787,0.648,1.537,0.932,2.32c0.185,0.511,0.253,1.062,0.42,1.58
	c0.249,0.77,0.54,1.528,0.803,2.295c0.058,0.158,0.07,0.333,0.111,0.497c0.089,0.337,0.187,0.674,0.273,1.012
	c0.069,0.258,0.132,0.514,0.192,0.772c0.044,0.188,0.082,0.378,0.119,0.569c0.054,0.26,0.097,0.522,0.153,0.783
	c0.061,0.285,0.062,0.608,0.207,0.842c0.39,0.637,0.341,1.362,0.497,2.044c0.158,0.683,0.286,1.374,0.417,2.063
	c0.08,0.396,0.159,0.788,0.222,1.184c0.103,0.624,0.194,1.249,0.286,1.875c0.012,0.085,0.008,0.171,0.017,0.255
	c0.131,1.203,0.271,2.406,0.388,3.611c0.092,0.962,0.169,1.927,0.22,2.894c0.041,0.775,0.031,1.555,0.048,2.331
	c0.002,0.121-0.002,0.25,0.035,0.361c0.242,0.731,0.084,1.472,0.055,2.211c-0.002,0.096-0.029,0.19-0.034,0.29
	c-0.021,0.469,0.222,0.683,0.683,0.573c0.697-0.168,1.396-0.213,2.102-0.078c1.507,0.287,2.634,1.43,2.764,2.954
	c0.046,0.562-0.084,1.169-0.266,1.713c-0.409,1.222-1.184,2.197-2.318,2.812C59.953-5.384,59.4-5.34,58.895-5.207
	c-0.457,0.119-0.937,0.19-1.371,0.367c-0.822,0.335-1.016,1.025-0.455,1.699c0.286,0.344,0.673,0.667,1.077,0.834
	c0.631,0.259,1.211,0.563,1.699,1.036c0.259,0.249,0.507,0.36,0.878,0.178c0.332-0.164,0.641,0.086,0.558,0.453
	c-0.057,0.253-0.2,0.528-0.391,0.702c-0.206,0.189-0.501,0.311-0.774,0.391c-0.444,0.124-0.703,0.405-0.865,0.816
	c-0.403,1.013-0.301,1.479,0.49,2.214c0.152,0.143,0.307,0.283,0.438,0.441c0.061,0.072,0.075,0.188,0.108,0.285
	c-0.111,0.021-0.224,0.074-0.33,0.06c-0.117-0.013-0.228-0.079-0.338-0.131c-0.374-0.177-0.723-0.11-1.022,0.141
	c-0.299,0.247-0.2,0.563-0.11,0.879c0.068,0.243,0.118,0.497,0.146,0.747c0.021,0.235-0.048,0.453-0.325,0.491
	c-0.273,0.038-0.51-0.019-0.633-0.309c-0.206-0.487-0.208-0.491-0.709-0.36c-0.572,0.151-1.123,0.137-1.687-0.06
	c-0.796-0.276-1.396-0.06-1.958,0.572c-0.781,0.882-1.577,1.755-2.396,2.607c-0.342,0.357-0.461,0.714-0.379,1.213
	c0.141,0.875,0.154,1.742-0.477,2.498c-0.373,0.45-0.334,0.703-0.007,1.184c0.098,0.142,0.19,0.284,0.288,0.424
	c0.353,0.495,0.795,0.59,1.278,0.242c0.334-0.239,0.648-0.507,0.949-0.788c0.438-0.414,1.271-0.488,1.756-0.136
	c0.316,0.229,0.418,0.748,0.214,1.208c-0.226,0.502-0.576,0.874-1.07,1.155c-0.662,0.376-1.333,0.699-2.088,0.839
	c-0.163,0.03-0.32,0.118-0.467,0.201c-0.174,0.096-0.215,0.234-0.121,0.43c0.25,0.505,0.064,1.311-0.417,1.616
	c-0.847,0.535-1.729,0.996-2.754,1.094c-0.758,0.076-1.208,0.481-1.414,1.226c-0.053,0.185-0.121,0.368-0.211,0.539
	c-0.332,0.64-0.324,1.162,0.181,1.687c0.654,0.676,1.095,1.452,1.384,2.331c0.022,0.073,0.047,0.146,0.093,0.198
	c0.565,0.665,0.802,1.499,1.151,2.272c0.533,1.182,0.733,2.436,0.723,3.736c-0.008,0.793-0.182,1.604,0.162,2.381
	c0.093,0.209,0.167,0.434,0.288,0.625c0.159,0.256,0.188,0.484,0.031,0.752c-0.067,0.105-0.125,0.262-0.1,0.373
	c0.12,0.531,0.268,1.057,0.409,1.58c0.03,0.107,0.087,0.205,0.106,0.309c0.213,1.146,0.753,2.123,1.536,2.973
	c0.05,0.055,0.091,0.111,0.131,0.176c0.438,0.652,0.827,1.35,1.326,1.953c0.484,0.588,1.051,1.119,1.639,1.604
	c0.586,0.49,1.224,0.916,1.875,1.32c0.69,0.426,1.44,0.715,2.283,0.621c0.158-0.018,0.323-0.014,0.474,0.018
	c0.371,0.074,0.609,0.42,0.563,0.781c-0.042,0.34-0.309,0.555-0.712,0.531c-0.896-0.059-1.72-0.354-2.471-0.83
	c-0.745-0.473-1.488-0.967-2.189-1.498c-0.996-0.76-1.884-1.639-2.693-2.59c-0.337-0.398-0.649-0.813-0.948-1.236
	c-0.576-0.818-1.095-1.662-1.323-2.662c-0.043-0.195-0.154-0.377-0.237-0.566c-0.014-0.033-0.045-0.061-0.058-0.094
	c-0.275-0.762-0.545-1.523-0.822-2.285c-0.146-0.406-0.303-0.813-0.45-1.219c-0.077-0.215-0.173-0.426-0.211-0.65
	c-0.116-0.652-0.163-1.324-0.321-1.971c-0.111-0.457-0.1-0.873,0.238-1.184c0.661-0.615,0.62-1.322,0.295-2.039
	c-0.435-0.965-0.919-1.904-1.4-2.845c-0.092-0.18-0.269-0.315-0.393-0.48c-0.344-0.455-0.66-0.933-1.025-1.367
	c-0.311-0.371-0.658-0.713-1.026-1.022c-0.099-0.081-0.354-0.04-0.503,0.025c-0.147,0.06-0.27,0.207-0.371,0.34
	c-0.688,0.885-1.098,1.897-1.294,2.988c-0.056,0.311,0.015,0.654,0.089,0.969c0.085,0.365,0.041,0.66-0.231,0.936
	c-0.343,0.344-0.659,0.715-0.989,1.074c-0.024,0.027-0.042,0.063-0.072,0.082c-0.725,0.426-1.367,1.014-2.248,1.125
	c-0.296,0.037-0.503-0.09-0.615-0.352c-0.121-0.285-0.041-0.529,0.207-0.709c0.623-0.445,1.241-0.895,1.875-1.32
	c0.526-0.352,0.778-0.793,0.696-1.449c-0.084-0.674-0.095-1.358-0.147-2.037c-0.041-0.543,0.162-0.994,0.454-1.432
	c0.368-0.547,0.595-1.152,0.458-1.826c-0.04-0.194-0.111-0.412-0.238-0.555c-0.363-0.411-0.737-0.818-1.152-1.174
	c-0.55-0.466-1.171-0.624-1.859-0.241c-0.151,0.083-0.349,0.087-0.527,0.124c-0.482,0.102-0.974,0.176-1.45,0.305
	c-0.856,0.235-1.704,0.5-2.553,0.761c-0.196,0.058-0.382,0.153-0.575,0.22c-0.205,0.072-0.417,0.183-0.623,0.18
	c-0.69-0.008-1.274,0.269-1.861,0.58c-0.375,0.196-0.77,0.357-1.16,0.524c-0.616,0.259-1.227,0.534-1.854,0.764
	c-1.334,0.493-2.667,0.985-4.017,1.43c-1.236,0.409-2.493,0.76-3.74,1.135c-0.581,0.175-1.161,0.361-1.746,0.528
	c-0.275,0.075-0.435,0.235-0.528,0.501c-0.284,0.805-0.373,1.578,0.182,2.332c0.149,0.201,0.217,0.492,0.239,0.75
	c0.109,1.266,0.897,2.012,1.943,2.543c0.218,0.107,0.521,0.063,0.783,0.07c0.122,0.002,0.241-0.053,0.362-0.064
	c0.333-0.037,0.56,0.121,0.617,0.428c0.059,0.311-0.113,0.596-0.449,0.633c-0.335,0.035-0.693,0.045-1.016-0.037
	c-1.006-0.248-1.962-0.584-2.602-1.508c-0.362-0.516-0.805-0.977-1.234-1.441c-0.379-0.414-0.889-0.516-1.413-0.42
	c-0.446,0.082-0.617,0.479-0.658,0.875c-0.087,0.859-0.127,1.725-0.178,2.592c-0.017,0.299,0.174,0.385,0.4,0.248
	c0.379-0.232,0.608,0.119,0.908,0.189c0.027,0.004,0.063,0.166,0.032,0.221c-0.084,0.145-0.179,0.297-0.309,0.393
	c-0.389,0.297-0.542,0.684-0.513,1.15c0.038,0.652-0.072,1.258-0.467,1.801c-0.245,0.34-0.244,0.738-0.15,1.129
	c0.233,0.953,0.342,1.914,0.299,2.898c-0.033,0.709,0.328,1.201,0.953,1.512c0.152,0.076,0.314,0.135,0.464,0.217
	c0.475,0.262,0.75,0.646,0.713,1.215c-0.01,0.158-0.029,0.32-0.004,0.473c0.171,1.123-0.03,2.23-0.073,3.348
	c-0.045,1.145,0.065,2.322,0.319,3.439c0.214,0.949,0.477,1.883,0.561,2.857c0.025,0.275,0.132,0.543,0.189,0.818
	c0.13,0.619,0.243,1.238,0.382,1.854c0.229,1.008,0.472,2.01,0.714,3.016c0.095,0.402,0.2,0.801,0.302,1.201
	c0.038,0.152,0.063,0.311,0.117,0.461c0.465,1.252,0.861,2.537,1.433,3.748c0.345,0.729,0.659,1.52,1.289,2.1
	c0.151,0.137,0.268,0.316,0.386,0.482c0.691,0.975,1.615,1.557,2.796,1.762c0.276,0.047,0.587,0.221,0.763,0.432
	c0.582,0.699,1.126,1.434,1.652,2.178c0.568,0.807,1.077,1.645,1.648,2.451c0.501,0.701,1.053,1.365,1.575,2.057
	c0.856,1.137,1.667,2.313,2.564,3.412c1.118,1.369,1.643,3,2.192,4.621c0.239,0.705,0.481,1.414,0.613,2.141
	c0.104,0.578,0.038,1.189,0.06,1.785c0.02,0.533,0.087,1.068,0.068,1.602c-0.02,0.496-0.084,1.002-0.209,1.48
	c-0.217,0.859-0.475,1.713-0.768,2.547c-0.075,0.225-0.313,0.451-0.534,0.549c-0.613,0.285-1.225-0.146-1.175-0.824
	c0.02-0.262,0.127-0.555,0.285-0.768c0.599-0.807,0.839-1.723,1.038-2.693c0.38-1.867-0.056-3.621-0.509-5.396
	c-0.213-0.828-0.55-1.568-1.01-2.287c-0.298-0.465-0.389-1.057-0.674-1.535c-0.598-1.002-1.23-1.984-1.903-2.938
	c-0.536-0.754-1.125-1.475-1.736-2.166c-0.475-0.539-1.021-1.01-1.539-1.51c-0.731-0.697-1.464-1.387-2.196-2.086
	c-0.088-0.082-0.188-0.164-0.247-0.268c-0.472-0.83-1.184-1.404-1.978-1.91c-0.269-0.17-0.473-0.449-0.704-0.68
	c-0.172-0.172-0.325-0.365-0.511-0.518c-0.493-0.402-0.849-0.9-1.22-1.422c-0.55-0.775-0.869-1.65-1.333-2.457
	c-0.049-0.084-0.082-0.178-0.114-0.27c-0.491-1.389-1.005-2.77-1.459-4.17c-0.261-0.807-0.434-1.645-0.631-2.475
	c-0.125-0.531-0.238-1.068-0.329-1.607c-0.292-1.727-0.568-3.455-0.858-5.182c-0.155-0.928-0.341-1.848-0.478-2.773
	c-0.081-0.551-0.058-1.119-0.139-1.67c-0.08-0.561-0.206-1.121-0.354-1.67c-0.199-0.736-0.424-1.451-0.876-2.105
	c-0.356-0.52-0.506-1.18-0.762-1.77c-0.059-0.135-0.165-0.248-0.249-0.373c-0.131,0.094-0.321,0.158-0.382,0.285
	c-0.276,0.574-0.635,1.129-0.573,1.818c0.047,0.52-0.291,0.828-0.66,1.104c-0.462,0.35-0.749,0.795-0.795,1.377
	c-0.074,0.934-0.479,1.748-0.855,2.584c-0.224,0.49-0.313,1.043-0.479,1.564c-0.25,0.76-0.463,1.543-0.781,2.275
	c-0.738,1.723-1.486,3.441-2.318,5.117c-0.545,1.098-1.167,2.176-1.891,3.162c-1.061,1.438-2.19,2.846-3.851,3.674
	c-0.304,0.15-0.631,0.26-0.956,0.357c-0.367,0.111-0.666-0.021-0.804-0.314c-0.14-0.299-0.042-0.672,0.25-0.875
	c0.127-0.086,0.288-0.166,0.436-0.168c1.083-0.021,1.849-0.68,2.554-1.359c0.794-0.766,1.551-1.588,2.208-2.473
	c0.652-0.877,1.175-1.846,1.721-2.797c0.364-0.633,0.699-1.285,0.987-1.957c0.326-0.758,0.577-1.549,0.875-2.316
	c0.275-0.717,0.594-1.416,0.844-2.139c0.139-0.406,0.178-0.842,0.254-1.27c0.127-0.701,0.249-1.406,0.367-2.111
	c0.097-0.566,0.209-1.125,0.265-1.693c0.044-0.418-0.145-0.518-0.54-0.371c-0.429,0.158-0.772,0.398-1.113,0.719
	c-0.378,0.357-0.878,0.619-1.369,0.809c-0.547,0.211-1.145,0.295-1.721,0.434c-0.045,0.014-0.1,0.037-0.142,0.025
	c-0.219-0.066-0.463-0.104-0.64-0.232c-0.076-0.053-0.062-0.336,0.008-0.461c0.136-0.242,0.389-0.234,0.649-0.199
	c0.966,0.137,1.723-0.217,2.284-1.01c0.089-0.127,0.229-0.213,0.336-0.33c0.316-0.35,0.662-0.674,0.936-1.055
	c0.352-0.494,0.646-1.029,0.957-1.555c0.094-0.154,0.202-0.318,0.228-0.49c0.057-0.348,0.153-0.643,0.458-0.873
	c0.229-0.174,0.167-0.436-0.101-0.732c-0.203-0.223-0.381-0.113-0.528,0.047c-0.563,0.613-1.241,1.063-2.026,1.32
	c-0.494,0.164-1.012,0.268-1.527,0.34c-0.398,0.057-0.631-0.143-0.63-0.434c-0.001-0.313,0.255-0.523,0.644-0.463
	c0.645,0.102,1.162-0.109,1.638-0.525c0.267-0.23,0.589-0.391,0.874-0.602c0.597-0.439,0.933-0.973,0.913-1.787
	c-0.02-0.814,0.189-1.633,0.276-2.451c0.037-0.346,0.028-0.701,0.03-1.051c0.002-0.324-0.048-0.66,0-0.98
	c0.121-0.791,0.279-1.58,0.434-2.365c0.061-0.309,0.116-0.627,0.237-0.916c0.271-0.646,0.337-1.318,0.329-2.006
	c-0.012-1.035,0.309-1.963,0.922-2.795c0.102-0.14,0.143-0.33,0.201-0.501c0.194-0.601,0.364-1.206,0.584-1.797
	c0.135-0.363,0.46-0.538,0.824-0.664c0.538-0.187,1.066-0.409,1.597-0.617c0.066-0.026,0.127-0.091,0.193-0.098
	c0.474-0.029,0.709-0.389,1.036-0.658c0.574-0.467,0.803-1.112,1.112-1.727c0.164-0.328,0.279-0.68,0.468-0.99
	c0.169-0.275,0.372-0.558,0.625-0.747c1.316-0.984,2.642-1.955,3.99-2.89c0.316-0.221,0.738-0.298,1.122-0.41
	c0.523-0.152,1.072-0.231,1.581-0.423c0.756-0.282,1.188-0.911,1.454-1.64c0.145-0.395-0.061-0.897-0.48-1.08
	c-0.399-0.173-0.853-0.271-1.29-0.306c-0.532-0.046-1.076-0.034-1.608,0.027c-1.051,0.124-2.088,0.329-2.729,1.314
	c-0.306,0.474-0.759,0.599-1.28,0.729c-0.878,0.218-1.723,0.563-2.582,0.859c-0.09,0.03-0.167,0.119-0.259,0.132
	c-0.995,0.16-1.698,0.83-2.423,1.43c-0.534,0.44-0.996,0.973-1.167,1.686c-0.168,0.69-0.502,1.254-1.157,1.608
	c-0.228,0.121-0.41,0.336-0.602,0.523c-0.297,0.284-0.577,0.59-0.879,0.87c-0.472,0.431-1.001,0.632-1.673,0.682
	c-1.159,0.087-2.303,0.348-3.457,0.515c-0.384,0.057-0.78,0.077-1.166,0.054c-0.582-0.031-1.079-0.487-1.041-1.026
	c0.076-1.084-0.13-2.13-0.264-3.192c-0.072-0.571,0.017-1.165,0.058-1.746c0.012-0.176,0.092-0.353,0.172-0.515
	c0.131-0.268,0.343-0.417,0.654-0.306c0.264,0.093,0.347,0.374,0.25,0.712c-0.103,0.359-0.24,0.72-0.269,1.086
	c-0.084,1.053,0.361,1.948,0.956,2.772c0.203,0.279,0.524,0.361,0.855,0.253c0.712-0.228,1.446-0.274,2.184-0.364
	c0.921-0.111,1.81-0.457,2.607-0.978c0.163-0.107,0.306-0.254,0.484-0.326c0.605-0.245,0.891-0.727,1.142-1.299
	c0.274-0.631,0.617-1.243,1.231-1.635c0.123-0.077,0.243-0.173,0.33-0.287c0.943-1.26,2.298-1.918,3.713-2.44
	c1.493-0.551,2.902-1.261,4.286-2.032c0.107-0.06,0.214-0.285,0.184-0.397c-0.216-0.798-0.115-1.142,0.551-1.648
	c0.116-0.09,0.263-0.157,0.34-0.271C21.991,7.966,22,7.805,22.04,7.664c-0.133-0.034-0.279-0.126-0.395-0.095
	c-0.43,0.111-0.825,0.282-1.055,0.714c-0.229,0.426-0.497,0.503-0.944,0.354c-1.352-0.448-2.706-0.889-4.058-1.338
	c-1.182-0.396-2.323-0.879-3.327-1.642c-0.885-0.668-1.45-1.545-1.66-2.625c-0.058-0.291,0.014-0.637,0.125-0.918
	c0.056-0.14,0.353-0.276,0.517-0.252c0.126,0.016,0.333,0.313,0.305,0.444c-0.262,1.269,0.557,1.972,1.365,2.669
	c0.829,0.716,1.849,1.07,2.868,1.414c1.305,0.441,2.645,0.66,4.024,0.58c0.229-0.015,0.476-0.113,0.677-0.235
	c0.602-0.367,1.218-0.591,1.948-0.643c0.392-0.027,0.834-0.352,1.123-0.664c0.452-0.489,0.678-1.11,0.601-1.818
	c-0.061-0.555-0.056-1.119-0.106-1.676c-0.092-1.042-0.698-1.792-1.429-2.47c-0.218-0.205-0.452-0.421-0.589-0.681
	c-0.342-0.646-0.969-0.967-1.525-1.333c-1.667-1.1-3.38-2.135-5.333-2.659c-1.061-0.287-2.144-0.45-3.252-0.256
	C11.248-5.348,10.56-5.321,9.9-5.171c-0.892,0.202-1.109,0.52-1.147,1.438C8.728-3.085,8.309-2.673,7.715-2.711
	C7.185-2.743,6.862-3.17,6.893-3.798c0.068-1.386,0.85-2.193,2.414-2.565c0.993-0.237,1.988-0.246,3.003-0.227
	c1.281,0.024,2.539,0.199,3.732,0.614c1.037,0.362,2.016,0.904,2.993,1.422c0.857,0.458,1.674,0.995,2.506,1.499
	c0.136,0.08,0.258,0.182,0.388,0.272c0.446,0.313,0.881,0.644,1.347,0.928c0.239,0.146,0.538,0.196,0.777-0.046
	c0.207-0.209,0.216-0.741,0.076-1c-0.475-0.872-0.958-1.742-1.386-2.638c-0.301-0.632-0.54-1.296-0.774-1.957
	c-0.41-1.161-0.708-2.346-0.891-3.567c-0.155-1.033-0.411-2.049-0.627-3.074c-0.236-1.105-0.499-2.207-0.708-3.317
	c-0.113-0.605-0.124-1.231-0.205-1.843c-0.15-1.135-0.133-2.263,0.125-3.377c0.104-0.444,0.274-0.885,0.486-1.289
	c0.248-0.47,0.83-0.548,1.266-0.234c0.387,0.28,0.454,0.789,0.103,1.188c-0.527,0.594-0.664,1.309-0.723,2.062
	c-0.082,1.07-0.136,2.141,0.033,3.207c0.225,1.406,0.439,2.813,0.714,4.208c0.215,1.098,0.477,2.189,0.787,3.262
	c0.3,1.039,0.736,2.038,1.027,3.079c0.296,1.059,0.81,2.006,1.353,2.943c0.104,0.184,0.266,0.336,0.407,0.496
	c0.321,0.359,0.682,0.689,0.963,1.077c0.333,0.464,0.614,0.938,1.126,1.264c0.634,0.401,0.916,1.916,0.525,2.582
	c-0.368,0.63-0.828,1.163-1.609,1.335c-0.527,0.115-0.863,0.576-0.791,1.156c0.087,0.721,0.188,1.46,0.426,2.144
	c0.517,1.477,1.123,2.924,1.696,4.381c0.123,0.317,0.21,0.659,0.393,0.937c0.183,0.277,0.454,0.499,0.705,0.725
	c0.374,0.343,0.806,0.631,1.143,1.005c0.646,0.72,1.609,0.194,1.872-0.447c0.283-0.696,0.198-1.382,0.045-2.083
	c-0.043-0.195-0.001-0.416,0.035-0.62c0.046-0.237,0.19-0.467,0.19-0.701C31.835,8.218,32.3,7.78,32.93,7.458
	c0.249-0.127,0.503-0.37,0.804-0.127c0.304,0.248,0.255,0.579,0.17,0.911c-0.069,0.272-0.114,0.551-0.199,0.816
	c-0.149,0.459-0.143,0.894,0.04,1.355c0.092,0.23,0.069,0.52,0.05,0.779c-0.026,0.36-0.172,0.744,0.258,0.971
	c0.31,0.164,0.962,0.04,1.215-0.277c0.413-0.518,0.712-1.103,0.787-1.778c0.022-0.217,0.067-0.431,0.092-0.648
	c0.035-0.289,0.225-0.412,0.478-0.485c0.263-0.078,0.444,0.02,0.606,0.219c0.117,0.139,0.255,0.261,0.391,0.382
	c0.474,0.429,0.864,0.476,1.315,0.024c0.395-0.396,0.826-0.391,1.305-0.366c0.946,0.05,1.894,0.084,2.841,0.12
	c0.329,0.011,0.662-0.034,0.983,0.014c1.405,0.196,2.4-0.46,3.189-1.518c0.416-0.553,0.781-1.146,1.15-1.732
	c0.091-0.145,0.115-0.336,0.145-0.512c0.047-0.284,0.095-0.573,0.101-0.859c0.004-0.184-0.004-0.428-0.112-0.544
	c-0.469-0.499-0.42-1.116-0.365-1.69c0.067-0.696,0.377-1.324,0.702-1.965c0.364-0.721,0.898-1.188,1.51-1.626
	c0.176-0.129,0.365-0.259,0.567-0.321c0.568-0.177,0.919-0.576,1.182-1.075c0.322-0.617,0.646-1.231,0.938-1.86
	c0.221-0.473,0.237-0.969,0.008-1.453c-0.265-0.561-0.458-1.178-0.819-1.668c-0.545-0.737-1.204-1.391-1.826-2.069
	c-0.484-0.524-1.158-0.947-0.845-1.848c0.045-0.13-0.12-0.328-0.087-0.473c0.079-0.359,0.182-0.722,0.34-1.052
	c0.186-0.381,0.44-0.728,0.667-1.09c0.136-0.215,0.332-0.363,0.578-0.271c0.186,0.071,0.437,0.222,0.47,0.379
	c0.039,0.177-0.069,0.472-0.216,0.594c-0.633,0.529-0.717,1.247-0.741,1.983c-0.01,0.311,0.193,0.51,0.518,0.484
	C51.558-10.851,51.987-10.92,52.426-10.978z M22.178,17.381c-0.935,0.688-1.817,1.409-2.44,2.402
	c-0.155,0.249-0.31,0.502-0.502,0.72c-0.362,0.41-0.501,0.888-0.48,1.416c0.022,0.576-0.191,1.038-0.588,1.442
	c-0.351,0.359-0.549,0.799-0.621,1.3c-0.04,0.255,0.034,0.386,0.311,0.313c1.773-0.488,3.547-0.966,5.315-1.469
	c0.395-0.11,0.767-0.315,1.153-0.457c0.711-0.251,1.426-0.488,2.138-0.73c1.255-0.432,2.51-0.859,3.762-1.294
	c0.286-0.099,0.574-0.205,0.847-0.335c0.68-0.326,1.357-0.657,2.025-1.009c0.344-0.181,0.675-0.394,0.985-0.63
	c0.536-0.407,0.561-0.879,0.104-1.361c-0.175-0.187-0.358-0.366-0.52-0.565c-0.275-0.341-0.611-0.497-1.056-0.443
	c-0.317,0.037-0.623-0.032-0.794-0.336c-0.213-0.381-0.559-0.462-0.952-0.504c-0.496-0.052-0.987-0.156-1.483-0.203
	c-0.442-0.044-0.897-0.095-1.336-0.045c-0.894,0.1-1.778,0.26-2.665,0.404c-0.204,0.033-0.411,0.081-0.599,0.159
	c-0.486,0.198-0.963,0.407-1.437,0.63C22.95,16.971,22.565,17.183,22.178,17.381z M11.183,42.461
	c0.022-0.006,0.042-0.012,0.064-0.018c0.103,0.137,0.193,0.283,0.309,0.406c0.131,0.139,0.297,0.127,0.328-0.066
	c0.092-0.549,0.251-1.109,0.194-1.648c-0.093-0.885-0.223-1.756-0.085-2.65c0.059-0.377,0.057-0.781,0.001-1.158
	c-0.039-0.244-0.183-0.51-0.357-0.688c-0.344-0.352-0.624-0.277-0.767,0.199c-0.299,0.984-0.467,1.988-0.292,3.021
	c0.095,0.551,0.187,1.102,0.308,1.648C10.958,41.832,11.082,42.143,11.183,42.461z M48.781,17.898
	c-0.381,0.223-0.382,0.453-0.087,0.629c0.558,0.333,1.24,0.022,1.349-0.612c0.052-0.299-0.071-0.431-0.36-0.343
	C49.344,17.674,49.019,17.81,48.781,17.898z M22.412,9.186c-0.12,0.122-0.235,0.212-0.319,0.329
	c-0.049,0.068-0.088,0.197-0.052,0.255c0.031,0.055,0.166,0.082,0.249,0.07c0.311-0.044,0.622-0.1,0.926-0.175
	c0.209-0.054,0.432-0.189,0.329-0.424c-0.062-0.142-0.313-0.284-0.472-0.28C22.846,8.967,22.622,9.107,22.412,9.186z"/>
<g>
	<path fill="#FFFFFF" d="M22.501,23.258c-0.698-5.753-5.676-10.263-11.661-10.263v27.211H6.953v-31.1h3.888
		c4.663,0,8.822,2.062,11.661,5.287V9.107h3.886v31.1h-3.886V23.258z"/>
</g>
<g>
	<path fill="#FFFFFF" d="M29.573,9.133h3.888v19.476L44.655,9.133h4.51l-8.939,15.55l8.939,15.549h-4.51L37.97,28.609l-4.509,7.853
		v3.771h-3.888V9.133z"/>
</g>
</svg>
